<svg width="20" height="20" viewBox="0 0 20 20" fill="none" xmlns="http://www.w3.org/2000/svg">
<path d="M14.7438 9.26961C14.6576 9.22832 14.5701 9.18858 14.4815 9.15053C14.3271 6.30606 12.7728 4.6776 10.163 4.66094C10.1512 4.66086 10.1394 4.66086 10.1276 4.66086C8.56662 4.66086 7.26836 5.32718 6.46928 6.53966L7.9046 7.52425C8.50153 6.61857 9.43837 6.4255 10.1283 6.4255C10.1363 6.4255 10.1443 6.4255 10.1522 6.42557C11.0115 6.43105 11.6599 6.6809 12.0796 7.16813C12.385 7.52284 12.5893 8.01302 12.6904 8.63165C11.9286 8.50216 11.1046 8.46234 10.2238 8.51284C7.74248 8.65577 6.14732 10.1029 6.25445 12.1137C6.30882 13.1337 6.81696 14.0112 7.68522 14.5845C8.41933 15.0691 9.3648 15.306 10.3474 15.2524C11.6451 15.1812 12.6631 14.6861 13.3733 13.7808C13.9127 13.0933 14.2539 12.2024 14.4045 11.0798C15.0229 11.453 15.4813 11.9442 15.7344 12.5346C16.1648 13.5382 16.1899 15.1875 14.8442 16.5321C13.6651 17.71 12.2478 18.2196 10.1059 18.2353C7.72993 18.2177 5.93301 17.4557 4.76471 15.9705C3.67069 14.5798 3.10529 12.571 3.0842 10C3.10529 7.42894 3.67069 5.42017 4.76471 4.02945C5.93301 2.54426 7.7299 1.78229 10.1059 1.76464C12.4991 1.78243 14.3273 2.54806 15.5403 4.04042C16.1351 4.77225 16.5836 5.69258 16.8792 6.76566L18.5612 6.3169C18.2028 4.99606 17.639 3.85789 16.8717 2.91396C15.3166 1.0007 13.0422 0.0203279 10.1117 0H10.1C7.17549 0.0202573 4.92659 1.00435 3.41577 2.92493C2.07136 4.634 1.37787 7.01205 1.35457 9.99297L1.35449 10L1.35457 10.007C1.37787 12.9879 2.07136 15.366 3.41577 17.0751C4.92659 18.9956 7.17549 19.9798 10.1 20H10.1117C12.7118 19.982 14.5445 19.3013 16.0543 17.7928C18.0296 15.8194 17.9701 13.3457 17.3191 11.8272C16.852 10.7382 15.9615 9.85377 14.7438 9.26961ZM10.2545 13.4903C9.16704 13.5516 8.03724 13.0634 7.98153 12.0179C7.94024 11.2427 8.53322 10.3777 10.3213 10.2747C10.5261 10.2629 10.727 10.2571 10.9244 10.2571C11.5739 10.2571 12.1815 10.3202 12.7339 10.4409C12.5278 13.0141 11.3193 13.4319 10.2545 13.4903Z" fill="white"/>
</svg>
